<?xml version="1.0" encoding="UTF-8"?>
<!DOCTYPE svg PUBLIC "-//W3C//DTD SVG 1.0//EN" "http://www.w3.org/TR/2001/REC-SVG-20010904/DTD/svg10.dtd">
<!-- Creator: CorelDRAW 2021 (64-Bit) -->
<svg xmlns="http://www.w3.org/2000/svg" xml:space="preserve" width="297mm" height="210mm" version="1.0" style="shape-rendering:geometricPrecision; text-rendering:geometricPrecision; image-rendering:optimizeQuality; fill-rule:evenodd; clip-rule:evenodd"
viewBox="0 0 29700 21000"
 xmlns:xlink="http://www.w3.org/1999/xlink"
 xmlns:xodm="http://www.corel.com/coreldraw/odm/2003">
 <defs>
  <style type="text/css">
   <![CDATA[
    .fil1 {fill:none;fill-rule:nonzero}
    .fil0 {fill:#6EC0F2;fill-rule:nonzero}
   ]]>
  </style>
   <clipPath id="id0" style="clip-rule:nonzero">
    <path d="M2633.35 173.09c1307.59,0 2368.01,1060.42 2368.01,2368.02 0,1307.58 -1060.42,2368 -2368.01,2368 -1307.59,0 -2368.01,-1060.42 -2368.01,-2368 0,-1307.6 1060.42,-2368.02 2368.01,-2368.02z"/>
   </clipPath>
    <clipPath id="id1">
     <path d="M3637.5 396.19c385.4,180.78 714.11,462.33 952.24,810.73l0 2668.36c-426.48,624.08 -1143.64,1033.83 -1956.39,1033.83 -773.63,0 -1460.67,-371.25 -1892.83,-945.2l0 -2845.62c231.64,-307.6 536.51,-556.9 888.68,-722.1l2008.3 0z"/>
    </clipPath>
    <clipPath id="id2">
     <path d="M2633.35 173.09c1307.59,0 2368.01,1060.42 2368.01,2368.02 0,1307.58 -1060.42,2368 -2368.01,2368 -1307.59,0 -2368.01,-1060.42 -2368.01,-2368 0,-1307.6 1060.42,-2368.02 2368.01,-2368.02z"/>
    </clipPath>
 </defs>
 <g id="Layer_x0020_1">
  <metadata id="CorelCorpID_0Corel-Layer"/>
  <path id="thanks_2" class="fil0" d="M2633.35 173.09c1307.59,0 2368.01,1060.42 2368.01,2368.02 0,1307.58 -1060.42,2368 -2368.01,2368 -1307.59,0 -2368.01,-1060.42 -2368.01,-2368 0,-1307.6 1060.42,-2368.02 2368.01,-2368.02z" data-name="thanks!!!!"/>
  <g style="clip-path:url(#id0)">
   <g id="_2366417297600">
   </g>
   <g style="clip-path:url(#id1)">
    <image id="IMG_5856.PNG" x="740.52" y="396.2" width="3849.21" height="6366.47" xlink:href="main_Images\main_ImgID1.png"/>
   </g>
   <g style="clip-path:url(#id2)">
   </g>
  </g>
  <path class="fil1" d="M2633.35 173.09c1307.59,0 2368.01,1060.42 2368.01,2368.02 0,1307.58 -1060.42,2368 -2368.01,2368 -1307.59,0 -2368.01,-1060.42 -2368.01,-2368 0,-1307.6 1060.42,-2368.02 2368.01,-2368.02z"/>
  <script>
  </script>
 </g>
</svg>
